<svg width="84" height="25" viewBox="0 0 84 25" fill="none" xmlns="http://www.w3.org/2000/svg">
<g clip-path="url(#clip0_1_1373)">
<path fill-rule="evenodd" clip-rule="evenodd" d="M7.44134 13.6474C6.81833 13.6038 6.23815 13.3145 5.82843 12.8432C5.41871 12.3719 5.213 11.7571 5.25656 11.1341L6.01216 0.328521L1.3141 0L0.558502 10.8055C0.286356 14.6974 3.22094 18.0733 7.11282 18.3454L12.2807 18.7068L12.6092 14.0087L7.44134 13.6474ZM22.1269 6.17641C21.5716 6.13758 21.0141 6.2085 20.4863 6.38511C19.9584 6.56173 19.4705 6.84059 19.0504 7.20576C18.6303 7.57094 18.2863 8.01528 18.0379 8.51342C17.7896 9.01155 17.6418 9.55373 17.6029 10.109C17.5641 10.6643 17.635 11.2217 17.8116 11.7496C17.9883 12.2774 18.2671 12.7653 18.6323 13.1854C18.9975 13.6055 19.4418 13.9496 19.9399 14.1979C20.4381 14.4463 20.9803 14.5941 21.5355 14.6329C22.6569 14.7113 23.7636 14.3411 24.612 13.6036C25.4604 12.8661 25.981 11.8217 26.0594 10.7003C26.1379 9.57893 25.7676 8.4723 25.0301 7.6239C24.2926 6.7755 23.2483 6.25482 22.1269 6.17641ZM12.9049 9.78047C13.2496 4.8508 17.5257 1.13363 22.4554 1.47834C27.3851 1.82306 31.1022 6.09917 30.7575 11.0289C30.4128 15.9585 26.1367 19.6757 21.207 19.331C16.2773 18.9863 12.5602 14.7101 12.9049 9.78047ZM72.8659 9.72443C71.7445 9.64601 70.6379 10.0163 69.7895 10.7538C68.9411 11.4913 68.4204 12.5356 68.342 13.657C68.2636 14.7784 68.6339 15.885 69.3714 16.7334C70.1089 17.5818 71.1532 18.1025 72.2746 18.1809C73.396 18.2594 74.5026 17.8891 75.351 17.1516C76.1994 16.4141 76.7201 15.3698 76.7985 14.2484C76.8769 13.1269 76.5067 12.0203 75.7692 11.1719C75.0317 10.3235 73.9873 9.80284 72.8659 9.72443ZM63.644 13.3285C63.9887 8.39882 68.2648 4.68165 73.1945 5.02636C78.1241 5.37108 81.8413 9.64719 81.4966 14.5769C81.1519 19.5065 76.8758 23.2237 71.9461 22.879C67.0164 22.5343 63.2992 18.2582 63.644 13.3285ZM41.2476 2.79242C36.318 2.44771 32.0418 6.16488 31.6971 11.0946C31.3524 16.0242 35.0696 20.3003 39.9993 20.6451L53.1538 21.5649C54.0789 21.6296 54.9809 21.5511 55.8382 21.3485L58.256 22.8659L61.3208 17.9796C62.0995 16.7356 62.5604 15.3193 62.6629 13.8552L62.7043 13.2628C63.0491 8.33311 59.3319 4.057 54.4022 3.71228L41.2476 2.79242ZM58.0063 12.9343C58.0847 11.8129 57.7144 10.7062 56.9769 9.85784C56.2394 9.00944 55.1951 8.48876 54.0737 8.41034L40.9191 7.49049C40.3639 7.45166 39.8064 7.52258 39.2785 7.6992C38.7507 7.87581 38.2628 8.15467 37.8427 8.51985C37.4226 8.88502 37.0786 9.32936 36.8302 9.8275C36.5818 10.3256 36.434 10.8678 36.3952 11.4231C36.3564 11.9783 36.4273 12.5358 36.6039 13.0637C36.7805 13.5915 37.0594 14.0794 37.4245 14.4995C37.7897 14.9196 38.2341 15.2636 38.7322 15.512C39.2303 15.7604 39.7725 15.9082 40.3278 15.947L53.4823 16.8669C54.5981 16.9449 55.6994 16.5788 56.5464 15.8483C57.3934 15.1179 57.9173 14.0822 58.004 12.9672L58.0063 12.9343Z" fill="white"/>
<path d="M83.917 6.95648C83.8952 7.26798 83.7506 7.55807 83.5149 7.76293C83.2793 7.9678 82.9719 8.07065 82.6604 8.04887C82.3489 8.02709 82.0588 7.88245 81.8539 7.64679C81.6491 7.41112 81.5462 7.10372 81.568 6.79222C81.5898 6.48072 81.7344 6.19063 81.9701 5.98577C82.2057 5.78091 82.5131 5.67805 82.8246 5.69984C83.1361 5.72162 83.4262 5.86625 83.6311 6.10192C83.8359 6.33759 83.9388 6.64498 83.917 6.95648Z" fill="white"/>
</g>
<defs>
<clipPath id="clip0_1_1373">
<rect width="82.5636" height="18.7645" fill="white" transform="translate(1.3141) scale(1.00393) rotate(4)"/>
</clipPath>
</defs>
</svg>
